<?xml version="1.0" standalone="no"?>
<!DOCTYPE svg PUBLIC "-//W3C//DTD SVG 20010904//EN"
 "http://www.w3.org/TR/2001/REC-SVG-20010904/DTD/svg10.dtd">
<svg version="1.0" xmlns="http://www.w3.org/2000/svg"
 width="400.000000pt" height="400.000000pt" viewBox="0 0 400.000000 400.000000"
 preserveAspectRatio="xMidYMid meet">
<metadata>
Created by potrace 1.14, written by Peter Selinger 2001-2017
</metadata>
<g transform="translate(0.000000,400.000000) scale(0.100000,-0.100000)"
fill="#000000" stroke="none">
<path d="M1047 3933 c-1 0 -48 -4 -104 -7 -56 -3 -124 -11 -150 -17 -26 -6
-58 -13 -71 -15 -45 -9 -148 -52 -207 -87 -171 -101 -311 -284 -360 -472 -44
-169 -45 -210 -45 -1240 0 -805 4 -1098 15 -1190 14 -123 50 -238 103 -328 18
-31 30 -62 26 -69 -4 -6 -3 -8 3 -5 6 4 24 -10 39 -31 40 -52 109 -116 174
-160 30 -20 58 -41 61 -45 3 -5 12 -9 20 -11 8 -1 23 -7 34 -13 32 -17 141
-53 172 -58 15 -2 47 -8 70 -13 23 -5 45 -7 48 -4 3 4 10 0 15 -8 6 -8 10 -10
10 -4 0 11 27 13 45 3 6 -3 36 -5 67 -4 35 1 55 -2 51 -8 -4 -6 -1 -7 8 -2 7
5 459 10 1004 11 544 1 1005 4 1023 7 21 4 32 2 32 -6 0 -9 2 -9 8 0 5 7 21
15 38 17 16 3 38 7 49 9 11 3 26 -1 34 -7 12 -9 13 -8 6 3 -6 11 -3 13 13 9
12 -4 20 -2 17 2 -3 5 14 14 37 21 52 14 148 61 208 103 47 33 151 134 185
180 43 59 109 194 121 249 1 4 2 8 4 10 2 2 5 16 14 62 5 27 8 51 22 180 5 50
4 2027 -1 2110 -27 440 -279 731 -700 809 -82 16 -265 19 -1163 20 -536 0
-974 0 -975 -1z"/>
<path d="M306 402 c-3 -5 1 -9 9 -9 8 0 12 4 9 9 -3 4 -7 8 -9 8 -2 0 -6 -4
-9 -8z"/>
<path d="M1039 113 c-13 -16 -12 -17 4 -4 16 13 21 21 13 21 -2 0 -10 -8 -17
-17z"/>
<path d="M1255 121 c-3 -5 -2 -12 3 -15 5 -3 9 1 9 9 0 17 -3 19 -12 6z"/>
</g>
</svg>
